<svg width="38" height="38" viewBox="0 0 38 38" fill="none" xmlns="http://www.w3.org/2000/svg">
<g clip-path="url(#clip0_322_4155)">
<path d="M19.1817 38C19.0216 38 18.8725 37.9888 18.7035 37.9754C17.9729 37.9223 17.2604 37.7227 16.6081 37.3884L16.1632 37.1541C15.4803 36.7903 14.6283 36.3395 13.6963 35.7346C12.3597 34.8104 11.0792 33.8073 9.86137 32.7305C8.4444 31.5186 7.31884 29.8291 6.57366 28.6953L6.53806 28.6417C5.85071 27.6061 4.81413 26.0393 4.70958 24.1623C4.48714 19.9217 6.88285 16.44 10.6955 15.487C13.3938 14.8174 16.7883 15.6097 19.2018 18.6116C21.6153 15.6142 25.0098 14.8174 27.7058 15.487C31.5207 16.44 33.9342 19.924 33.6939 24.1623C33.5894 26.0393 32.5506 27.6061 31.8655 28.6417L31.8276 28.6975C31.0825 29.8134 29.9591 31.5186 28.5422 32.7305C27.3228 33.8063 26.0415 34.8094 24.705 35.7346C23.8221 36.3051 22.9087 36.8266 21.969 37.2969C21.3375 37.6184 20.6559 37.829 19.9536 37.9196L19.8602 37.933C19.6363 37.9742 19.4094 37.9966 19.1817 38V38ZM12.593 18.8259C12.2435 18.8254 11.8954 18.8682 11.5564 18.9531C9.93255 19.3571 8.09517 20.9127 8.26423 23.9637C8.30871 24.8029 8.85148 25.6845 9.50101 26.6642L9.5366 26.7178C10.1728 27.6775 11.1315 29.1238 12.1703 30.0121C14.0811 31.648 15.1066 32.3957 15.6315 32.735C16.4323 33.255 17.1753 33.65 17.8293 33.996L18.2964 34.2459C18.5141 34.344 18.7478 34.4015 18.986 34.4156C19.0913 34.4333 19.1988 34.4333 19.3041 34.4156L19.4309 34.3955C19.7568 34.3626 20.0737 34.2688 20.3651 34.1187C21.1917 33.7022 21.9952 33.241 22.772 32.7372C23.2947 32.398 24.3291 31.6503 26.2332 30.0143C27.2698 29.1215 28.2352 27.6798 28.8647 26.7223L28.9003 26.6665C29.5521 25.6845 30.0926 24.8051 30.1393 23.9659C30.3084 20.9149 28.471 19.3593 26.8471 18.9553C25.0498 18.509 22.6074 19.1629 21.0636 22.3032C20.8167 23.9771 19.5288 24.0887 19.2574 24.1065C19.0794 24.1065 17.618 24.0909 17.3599 22.3009C16.0764 19.732 14.2146 18.8259 12.593 18.8259Z" fill="#6FAAB5"/>
<path d="M3.85494 17.4198C3.0926 17.4198 2.34738 17.193 1.71348 16.7681C1.07959 16.3432 0.585491 15.7392 0.293654 15.0326C0.00181771 14.326 -0.0746528 13.5484 0.0739108 12.7982C0.222474 12.0479 0.589401 11.3588 1.1283 10.8177C1.6672 10.2767 2.35388 9.90817 3.10152 9.75868C3.84916 9.60918 4.62419 9.68546 5.32863 9.97787C6.03306 10.2703 6.63528 10.7657 7.05913 11.4014C7.48299 12.0372 7.70945 12.7848 7.70989 13.5497C7.7093 14.5755 7.30304 15.5592 6.58029 16.2848C5.85754 17.0104 4.87736 17.4186 3.85494 17.4198V17.4198ZM3.85494 12.1392C3.57646 12.1392 3.30422 12.222 3.07266 12.3772C2.84111 12.5325 2.66063 12.7531 2.55406 13.0113C2.44749 13.2694 2.4196 13.5535 2.47393 13.8276C2.52826 14.1016 2.66237 14.3533 2.85929 14.5509C3.05621 14.7485 3.30711 14.8831 3.58024 14.9376C3.85338 14.9921 4.1365 14.9641 4.39379 14.8572C4.65108 14.7502 4.87099 14.5692 5.02571 14.3368C5.18043 14.1045 5.26301 13.8314 5.26301 13.5519C5.26301 13.177 5.11473 12.8175 4.85073 12.5522C4.58673 12.2869 4.22859 12.1375 3.85494 12.1369V12.1392Z" fill="#6FAAB5"/>
<path d="M34.1457 17.3796C33.3833 17.3792 32.6383 17.152 32.0046 16.7267C31.371 16.3014 30.8772 15.6972 30.5858 14.9904C30.2943 14.2836 30.2183 13.506 30.3673 12.7558C30.5163 12.0057 30.8836 11.3167 31.4228 10.776C31.9621 10.2353 32.6489 9.86714 33.3967 9.71808C34.1444 9.56902 34.9194 9.64574 35.6237 9.93856C36.3279 10.2314 36.9298 10.7271 37.3533 11.3631C37.7768 11.9992 38.0029 12.7469 38.0029 13.5118C38.0017 14.5376 37.5949 15.5211 36.8717 16.2462C36.1485 16.9714 35.1681 17.379 34.1457 17.3796ZM34.1457 12.099C33.8673 12.0994 33.5953 12.1827 33.364 12.3382C33.1328 12.4937 32.9526 12.7145 32.8464 12.9727C32.7402 13.2309 32.7126 13.5149 32.7672 13.7888C32.8218 14.0627 32.956 14.3142 33.153 14.5115C33.3501 14.7089 33.601 14.8432 33.874 14.8976C34.1471 14.9519 34.4301 14.9238 34.6873 14.8168C34.9444 14.7098 35.1642 14.5287 35.3188 14.2964C35.4735 14.0642 35.556 13.7911 35.556 13.5118C35.5554 13.1369 35.4065 12.7775 35.1421 12.5126C34.8777 12.2478 34.5193 12.099 34.1457 12.099V12.099Z" fill="#6FAAB5"/>
<path d="M12.2791 11.0165C11.1977 11.0143 10.1413 10.6906 9.24321 10.0862C8.34515 9.4818 7.6458 8.6239 7.2335 7.62087C6.8212 6.61784 6.71447 5.5147 6.92678 4.45083C7.13909 3.38696 7.66092 2.4101 8.42634 1.64368C9.19175 0.877257 10.1664 0.355665 11.2272 0.144804C12.2879 -0.066056 13.3871 0.0432782 14.386 0.458993C15.3848 0.874707 16.2385 1.57815 16.839 2.48043C17.4396 3.38272 17.7601 4.44336 17.7601 5.52835C17.7595 6.24984 17.6172 6.96415 17.3415 7.63047C17.0657 8.29679 16.6617 8.90207 16.1528 9.41173C15.6438 9.92138 15.0397 10.3254 14.375 10.6008C13.7104 10.8761 12.9982 11.0174 12.2791 11.0165V11.0165ZM12.2791 2.49745C11.6816 2.49966 11.0981 2.67948 10.6024 3.0142C10.1067 3.34892 9.72095 3.82353 9.49391 4.37808C9.26688 4.93263 9.20873 5.54225 9.32681 6.12994C9.44488 6.71764 9.73389 7.25704 10.1573 7.68002C10.5808 8.10301 11.1196 8.39061 11.7059 8.50649C12.2921 8.62237 12.8995 8.56133 13.4511 8.3311C14.0028 8.10086 14.4742 7.71175 14.8056 7.2129C15.137 6.71406 15.3136 6.12786 15.3132 5.52835C15.3129 5.12928 15.2341 4.73419 15.0814 4.36572C14.9286 3.99726 14.7049 3.66265 14.4231 3.38109C14.1412 3.09953 13.8067 2.87654 13.4388 2.72491C13.0709 2.57328 12.6768 2.49598 12.2791 2.49745V2.49745Z" fill="#6FAAB5"/>
<path d="M25.2455 10.9742C24.1636 10.9746 23.1058 10.6531 22.206 10.0504C21.3062 9.44757 20.6048 8.59059 20.1904 7.58779C19.7761 6.58499 19.6675 5.48143 19.8783 4.41667C20.0891 3.35192 20.6099 2.37381 21.3747 1.60605C22.1396 0.838288 23.1143 0.315367 24.1754 0.103423C25.2365 -0.108521 26.3364 3.27239e-05 27.336 0.415356C28.3357 0.830678 29.1901 1.53411 29.7912 2.43669C30.3923 3.33927 30.7132 4.40044 30.7132 5.486C30.7114 6.94063 30.1349 8.33521 29.1099 9.36399C28.085 10.3928 26.6953 10.9718 25.2455 10.9742ZM25.2455 2.45511C24.6475 2.45466 24.0627 2.63223 23.5652 2.96535C23.0677 3.29846 22.6799 3.77215 22.4509 4.32647C22.2218 4.8808 22.1617 5.49084 22.2783 6.07942C22.3949 6.66799 22.6828 7.20865 23.1057 7.63297C23.5286 8.0573 24.0675 8.34622 24.6541 8.46318C25.2407 8.58015 25.8487 8.51989 26.4012 8.29005C26.9537 8.0602 27.4258 7.67109 27.7578 7.17195C28.0898 6.67282 28.2668 6.08609 28.2663 5.486C28.2622 4.68446 27.9423 3.91708 27.3763 3.35134C26.8104 2.7856 26.0444 2.46743 25.2455 2.46626V2.45511Z" fill="#6FAAB5"/>
</g>
<defs>
<clipPath id="clip0_322_4155">
<rect width="38" height="38" fill="white"/>
</clipPath>
</defs>
</svg>
